<?xml version="1.0" encoding="iso-8859-1"?>
<!-- Generator: Adobe Illustrator 19.0.0, SVG Export Plug-In . SVG Version: 6.00 Build 0)  -->
<svg version="1.1" id="Capa_1" xmlns="http://www.w3.org/2000/svg" xmlns:xlink="http://www.w3.org/1999/xlink" x="0px" y="0px"
	 viewBox="0 0 512 512" style="enable-background:new 0 0 512 512;" xml:space="preserve">
<g>
	
		<linearGradient id="SVGID_1_" gradientUnits="userSpaceOnUse" x1="-8.594" y1="637.1476" x2="-8.594" y2="574.3346" gradientTransform="matrix(8.6146 0 0 -8.6146 373.112 5486.3325)">
		<stop  offset="0" style="stop-color:#FC5C7D"/>
		<stop  offset="0.129" style="stop-color:#F35E85"/>
		<stop  offset="0.343" style="stop-color:#D9659B"/>
		<stop  offset="0.616" style="stop-color:#B070BF"/>
		<stop  offset="0.934" style="stop-color:#777FF0"/>
		<stop  offset="1" style="stop-color:#6A82FB"/>
	</linearGradient>
	<path style="fill:url(#SVGID_1_);" d="M291.346,512c5.97-0.861,11.966-1.869,17.824-3.101l-3.549-16.859
		c-5.462,1.154-11.053,2.119-16.635,2.895L291.346,512z"/>
	
		<linearGradient id="SVGID_2_" gradientUnits="userSpaceOnUse" x1="3.1645" y1="637.1476" x2="3.1645" y2="574.3346" gradientTransform="matrix(8.6146 0 0 -8.6146 373.112 5486.3325)">
		<stop  offset="0" style="stop-color:#FC5C7D"/>
		<stop  offset="0.129" style="stop-color:#F35E85"/>
		<stop  offset="0.343" style="stop-color:#D9659B"/>
		<stop  offset="0.616" style="stop-color:#B070BF"/>
		<stop  offset="0.934" style="stop-color:#777FF0"/>
		<stop  offset="1" style="stop-color:#6A82FB"/>
	</linearGradient>
	<path style="fill:url(#SVGID_2_);" d="M322.255,487.914l4.738,16.566c63.722-18.194,117.986-60.25,151.496-117.417l-14.834-8.735
		C432.376,431.686,381.731,470.934,322.255,487.914z"/>
	
		<linearGradient id="SVGID_3_" gradientUnits="userSpaceOnUse" x1="-18.663" y1="637.1476" x2="-18.663" y2="574.3346" gradientTransform="matrix(8.6146 0 0 -8.6146 373.112 5486.3325)">
		<stop  offset="0" style="stop-color:#FC5C7D"/>
		<stop  offset="0.129" style="stop-color:#F35E85"/>
		<stop  offset="0.343" style="stop-color:#D9659B"/>
		<stop  offset="0.616" style="stop-color:#B070BF"/>
		<stop  offset="0.934" style="stop-color:#777FF0"/>
		<stop  offset="1" style="stop-color:#6A82FB"/>
	</linearGradient>
	<path style="fill:url(#SVGID_3_);" d="M205.795,19.96c5.462-1.154,11.053-2.119,16.635-2.895L220.069,0
		c-5.97,0.861-11.966,1.869-17.824,3.101L205.795,19.96z"/>
	
		<linearGradient id="SVGID_4_" gradientUnits="userSpaceOnUse" x1="-30.4215" y1="637.1476" x2="-30.4215" y2="574.3346" gradientTransform="matrix(8.6146 0 0 -8.6146 373.112 5486.3325)">
		<stop  offset="0" style="stop-color:#FC5C7D"/>
		<stop  offset="0.129" style="stop-color:#F35E85"/>
		<stop  offset="0.343" style="stop-color:#D9659B"/>
		<stop  offset="0.616" style="stop-color:#B070BF"/>
		<stop  offset="0.934" style="stop-color:#777FF0"/>
		<stop  offset="1" style="stop-color:#6A82FB"/>
	</linearGradient>
	<path style="fill:url(#SVGID_4_);" d="M32.925,124.938l14.834,8.735c31.28-53.359,81.925-92.607,141.4-109.586l-4.738-16.566
		C120.7,25.715,66.436,67.771,32.925,124.938z"/>
	
		<linearGradient id="SVGID_5_" gradientUnits="userSpaceOnUse" x1="-13.5946" y1="637.1476" x2="-13.5946" y2="574.3346" gradientTransform="matrix(8.6146 0 0 -8.6146 373.112 5486.3325)">
		<stop  offset="0" style="stop-color:#FC5C7D"/>
		<stop  offset="0.129" style="stop-color:#F35E85"/>
		<stop  offset="0.343" style="stop-color:#D9659B"/>
		<stop  offset="0.616" style="stop-color:#B070BF"/>
		<stop  offset="0.934" style="stop-color:#777FF0"/>
		<stop  offset="1" style="stop-color:#6A82FB"/>
	</linearGradient>
	<path style="fill:url(#SVGID_5_);" d="M204.382,473.949l0.336,0.784l1.068-0.457c120.716,27.73,241.062-47.647,268.793-168.364
		c27.73-120.716-47.647-241.062-168.364-268.793S65.153,84.768,37.422,205.484C9.812,325.649,84.389,445.573,204.382,473.949z
		 M462.458,256c-0.129,92.331-61.37,173.429-150.152,198.808l-7.383-10.338c-17.72-24.819-21.149-57.106-9.037-85.095h33.907
		c43.771,0.069,79.306-35.363,79.375-79.134c0.043-27.412-14.085-52.902-37.353-67.392l-16.273-10.165
		c25.732-22.88,38.473-57.011,34.045-91.16l-1.809-14.49C435.098,136.257,462.475,194.535,462.458,256z M368.611,82.933
		l3.842,30.737c6.047,48.397-28.282,92.529-76.679,98.577c-3.635,0.457-7.288,0.681-10.949,0.681h-72.19v17.229h72.19
		c19.831-0.052,39.24-5.703,55.995-16.299l21.769,13.611c29.083,18.108,37.973,56.357,19.865,85.44
		c-11.328,18.185-31.237,29.247-52.661,29.238h-82.7v17.229h30.151c-11.208,32.029-6.116,67.513,13.646,95.105l3.299,4.617
		c-25.611,4.902-51.929,4.876-77.531-0.086L202.4,425.751c-18.53-42.935-9.64-92.796,22.596-126.678h73.784v-17.229h-93.296
		c-38.929,0.009-70.493-31.538-70.502-70.467c-0.009-18.702,7.426-36.646,20.658-49.87l24.655-24.664
		c0.224,0.19,0.422,0.405,0.646,0.586c18.47,15.368,41.738,23.794,65.764,23.811h52.075V144.01h-52.075
		c-40.747,0.009-75.834-28.756-83.82-68.719l-0.724-3.575c65.841-33.562,144.622-29.29,206.449,11.199V82.933z M146.457,80.59
		c3.575,16.213,11.009,31.323,21.683,44.046l-24.681,24.689c-34.252,34.217-34.269,89.721-0.052,123.973
		c15.739,15.756,36.879,24.922,59.139,25.654c-28.936,38.43-35.018,89.437-15.928,133.587l9.14,21.321
		c-109.242-33.054-171-148.412-137.937-257.654C72.354,148.188,103.858,107.088,146.457,80.59z"/>
	
		<linearGradient id="SVGID_6_" gradientUnits="userSpaceOnUse" x1="-32.6285" y1="637.1476" x2="-32.6285" y2="574.3346" gradientTransform="matrix(8.6146 0 0 -8.6146 373.112 5486.3325)">
		<stop  offset="0" style="stop-color:#FC5C7D"/>
		<stop  offset="0.129" style="stop-color:#F35E85"/>
		<stop  offset="0.343" style="stop-color:#D9659B"/>
		<stop  offset="0.616" style="stop-color:#B070BF"/>
		<stop  offset="0.934" style="stop-color:#777FF0"/>
		<stop  offset="1" style="stop-color:#6A82FB"/>
	</linearGradient>
	<rect x="83.416" y="178.469" style="fill:url(#SVGID_6_);" width="17.229" height="17.229"/>
	
		<linearGradient id="SVGID_7_" gradientUnits="userSpaceOnUse" x1="-34.6285" y1="637.1476" x2="-34.6285" y2="574.3346" gradientTransform="matrix(8.6146 0 0 -8.6146 373.112 5486.3325)">
		<stop  offset="0" style="stop-color:#FC5C7D"/>
		<stop  offset="0.129" style="stop-color:#F35E85"/>
		<stop  offset="0.343" style="stop-color:#D9659B"/>
		<stop  offset="0.616" style="stop-color:#B070BF"/>
		<stop  offset="0.934" style="stop-color:#777FF0"/>
		<stop  offset="1" style="stop-color:#6A82FB"/>
	</linearGradient>
	<rect x="66.186" y="264.615" style="fill:url(#SVGID_7_);" width="17.229" height="17.229"/>
	
		<linearGradient id="SVGID_8_" gradientUnits="userSpaceOnUse" x1="-26.6285" y1="637.1476" x2="-26.6285" y2="574.3346" gradientTransform="matrix(8.6146 0 0 -8.6146 373.112 5486.3325)">
		<stop  offset="0" style="stop-color:#FC5C7D"/>
		<stop  offset="0.129" style="stop-color:#F35E85"/>
		<stop  offset="0.343" style="stop-color:#D9659B"/>
		<stop  offset="0.616" style="stop-color:#B070BF"/>
		<stop  offset="0.934" style="stop-color:#777FF0"/>
		<stop  offset="1" style="stop-color:#6A82FB"/>
	</linearGradient>
	<rect x="135.103" y="307.688" style="fill:url(#SVGID_8_);" width="17.229" height="17.229"/>
	
		<linearGradient id="SVGID_9_" gradientUnits="userSpaceOnUse" x1="4.3715" y1="637.1476" x2="4.3715" y2="574.3346" gradientTransform="matrix(8.6146 0 0 -8.6146 373.112 5486.3325)">
		<stop  offset="0" style="stop-color:#FC5C7D"/>
		<stop  offset="0.129" style="stop-color:#F35E85"/>
		<stop  offset="0.343" style="stop-color:#D9659B"/>
		<stop  offset="0.616" style="stop-color:#B070BF"/>
		<stop  offset="0.934" style="stop-color:#777FF0"/>
		<stop  offset="1" style="stop-color:#6A82FB"/>
	</linearGradient>
	<rect x="402.156" y="178.469" style="fill:url(#SVGID_9_);" width="17.229" height="17.229"/>
	
		<linearGradient id="SVGID_10_" gradientUnits="userSpaceOnUse" x1="-27.6285" y1="637.1476" x2="-27.6285" y2="574.3346" gradientTransform="matrix(8.6146 0 0 -8.6146 373.112 5486.3325)">
		<stop  offset="0" style="stop-color:#FC5C7D"/>
		<stop  offset="0.129" style="stop-color:#F35E85"/>
		<stop  offset="0.343" style="stop-color:#D9659B"/>
		<stop  offset="0.616" style="stop-color:#B070BF"/>
		<stop  offset="0.934" style="stop-color:#777FF0"/>
		<stop  offset="1" style="stop-color:#6A82FB"/>
	</linearGradient>
	<rect x="126.489" y="376.604" style="fill:url(#SVGID_10_);" width="17.229" height="17.229"/>
	
		<linearGradient id="SVGID_11_" gradientUnits="userSpaceOnUse" x1="4.3715" y1="637.1476" x2="4.3715" y2="574.3346" gradientTransform="matrix(8.6146 0 0 -8.6146 373.112 5486.3325)">
		<stop  offset="0" style="stop-color:#FC5C7D"/>
		<stop  offset="0.129" style="stop-color:#F35E85"/>
		<stop  offset="0.343" style="stop-color:#D9659B"/>
		<stop  offset="0.616" style="stop-color:#B070BF"/>
		<stop  offset="0.934" style="stop-color:#777FF0"/>
		<stop  offset="1" style="stop-color:#6A82FB"/>
	</linearGradient>
	<rect x="402.156" y="342.146" style="fill:url(#SVGID_11_);" width="17.229" height="17.229"/>
	
		<linearGradient id="SVGID_12_" gradientUnits="userSpaceOnUse" x1="7.3715" y1="637.1476" x2="7.3715" y2="574.3346" gradientTransform="matrix(8.6146 0 0 -8.6146 373.112 5486.3325)">
		<stop  offset="0" style="stop-color:#FC5C7D"/>
		<stop  offset="0.129" style="stop-color:#F35E85"/>
		<stop  offset="0.343" style="stop-color:#D9659B"/>
		<stop  offset="0.616" style="stop-color:#B070BF"/>
		<stop  offset="0.934" style="stop-color:#777FF0"/>
		<stop  offset="1" style="stop-color:#6A82FB"/>
	</linearGradient>
	<rect x="428" y="256" style="fill:url(#SVGID_12_);" width="17.229" height="17.229"/>
</g>
<g>
</g>
<g>
</g>
<g>
</g>
<g>
</g>
<g>
</g>
<g>
</g>
<g>
</g>
<g>
</g>
<g>
</g>
<g>
</g>
<g>
</g>
<g>
</g>
<g>
</g>
<g>
</g>
<g>
</g>
</svg>
